<?xml version="1.0" encoding="UTF-8"?>
<svg version="1.1" xmlns="http://www.w3.org/2000/svg" width="818" height="818">
<path d="M0 0 C19.8 0 39.6 0 60 0 C48.51705724 27.55906262 48.51705724 27.55906262 44.6171875 36.625 C44.16420792 37.68103928 43.71122833 38.73707855 43.24452209 39.82511902 C41.7891949 43.21725398 40.33213737 46.60864229 38.875 50 C37.82743519 52.44045961 36.77996613 54.88096002 35.73266602 57.3215332 C34.10955957 61.10380712 32.48637571 64.88604761 30.86262512 68.66804504 C27.20569396 77.18624385 23.55585924 85.70745694 19.91015625 94.23046875 C10.14504135 117.05463059 0.34018744 139.86015769 -9.5625 162.625 C-17.26089766 180.32328349 -24.88615207 198.05096941 -32.4375 215.8125 C-32.91035431 216.92464874 -33.38320862 218.03679749 -33.87039185 219.18264771 C-34.82781053 221.43462957 -35.78521304 223.68661832 -36.74259949 225.93861389 C-37.21812759 227.05715256 -37.6936557 228.17569122 -38.18359375 229.328125 C-38.89851738 231.00986061 -38.89851738 231.00986061 -39.62788391 232.72557068 C-45.06567885 245.51292513 -50.5282047 258.28966199 -56 271.0625 C-56.49663147 272.22195129 -56.99326294 273.38140259 -57.50494385 274.57598877 C-65.3569199 292.90066659 -73.28381306 311.19209205 -81.24200439 329.47085571 C-89.07201228 347.46105025 -96.75517191 365.50990954 -104.32739258 383.61010742 C-104.7052037 384.51099594 -105.08301483 385.41188446 -105.47227478 386.34007263 C-106.1760133 388.01865027 -106.87767698 389.69809982 -107.57691956 391.3785553 C-109.88780519 396.88780519 -109.88780519 396.88780519 -111 398 C-112.81055025 398.09376053 -114.62477201 398.1174411 -116.43774414 398.11352539 C-118.17943626 398.11341209 -118.17943626 398.11341209 -119.95631409 398.11329651 C-121.85159096 398.10555458 -121.85159096 398.10555458 -123.78515625 398.09765625 C-125.07111191 398.0962413 -126.35706757 398.09482635 -127.68199158 398.09336853 C-131.10643443 398.08954418 -134.53083509 398.07971462 -137.95526123 398.06866455 C-141.44738189 398.05844864 -144.93950934 398.05387053 -148.43164062 398.04882812 C-155.28777778 398.03809227 -162.14388687 398.02101684 -169 398 C-168.40235585 394.56675184 -167.52763828 391.56448931 -166.15600586 388.36401367 C-165.77209686 387.46175552 -165.38818787 386.55949738 -164.99264526 385.62989807 C-164.36013351 384.16374306 -164.36013351 384.16374306 -163.71484375 382.66796875 C-163.27141632 381.62966415 -162.82798889 380.59135956 -162.37112427 379.52159119 C-160.89780778 376.07492361 -159.41766863 372.63122986 -157.9375 369.1875 C-156.89533455 366.75326981 -155.85354789 364.31888093 -154.81225586 361.88427734 C-152.35992396 356.15283854 -149.90276586 350.42348253 -147.44375134 344.69490814 C-144.61722153 338.10957285 -141.79678576 331.52163202 -138.9765625 324.93359375 C-134.49996293 314.47836033 -130.01821098 304.02534474 -125.53437805 293.57321167 C-121.9951367 285.32224458 -118.45955127 277.06971796 -114.92578125 268.81640625 C-104.86291171 245.31642156 -94.77742215 221.82655793 -84.64294434 198.35736084 C-74.3929584 174.61829765 -64.21022543 150.85056325 -54.03222656 127.08056641 C-49.52145263 116.54653989 -45.00667604 106.01422904 -40.49221802 95.48178101 C-39.01008565 92.02353277 -37.52830471 88.56513416 -36.04663086 85.10668945 C-31.35606109 74.15886721 -26.66283419 63.21220164 -21.96139526 52.26904297 C-20.00923282 47.72509819 -18.0582561 43.18064461 -16.10754204 38.63607788 C-14.77574085 35.53364504 -13.44304301 32.4316044 -12.10913086 29.33007812 C-10.63751329 25.90825673 -9.1681354 22.48548154 -7.69921875 19.0625 C-7.26598801 18.05678955 -6.83275726 17.0510791 -6.38639832 16.01489258 C-5.98262466 15.07282959 -5.57885101 14.1307666 -5.1628418 13.16015625 C-4.81553513 12.35199463 -4.46822845 11.54383301 -4.11039734 10.71118164 C-2.66097791 7.17223283 -1.34278783 3.58076755 0 0 Z " fill="#FDFDFD" transform="translate(458,200)"/>
<path d="M0 0 C2.52444615 1.02864383 3.89844567 2.31882067 5.81573486 4.25636292 C6.53617981 4.97703445 7.25662476 5.69770599 7.99890137 6.44021606 C8.76571228 7.22251083 9.53252319 8.0048056 10.3225708 8.81080627 C11.11596863 9.60844894 11.90936646 10.40609161 12.72680664 11.22790527 C15.26063978 13.7785385 17.78384685 16.33940228 20.3069458 18.90065002 C22.0224022 20.63115145 23.73853985 22.36097782 25.4553833 24.09010315 C29.66384223 28.33164908 33.86362231 32.581643 38.0569458 36.83815002 C36.72810854 40.82466181 34.11165267 42.34831091 30.8694458 44.77565002 C25.7996122 48.65748562 20.87134813 52.64372746 16.0569458 56.83815002 C11.48760922 60.80718243 6.84187721 64.63189872 2.0569458 68.33815002 C-3.43363051 72.59157601 -8.72983853 77.02826358 -13.980896 81.57301331 C-17.95526163 85.00798082 -22.0012008 88.32645814 -26.1227417 91.58424377 C-29.90769334 94.60905969 -33.6434067 97.6920862 -37.3805542 100.77565002 C-38.11975098 101.38545715 -38.85894775 101.99526428 -39.62054443 102.62355042 C-41.06808513 103.81776748 -42.51559577 105.01202098 -43.96307373 106.20631409 C-49.17239803 110.49967088 -54.40340918 114.76662535 -59.63446045 119.03346252 C-60.54067139 119.7733844 -61.44688232 120.51330627 -62.3805542 121.27565002 C-63.27516357 122.0052594 -64.16977295 122.73486877 -65.0914917 123.48658752 C-67.15225269 125.1860096 -69.19754261 126.89705163 -71.2321167 128.62721252 C-71.77811523 129.089422 -72.32411377 129.55163147 -72.88665771 130.02784729 C-74.43074249 131.33721068 -75.97022246 132.65199859 -77.50946045 133.96705627 C-79.9430542 135.83815002 -79.9430542 135.83815002 -81.9430542 135.83815002 C-78.23244829 140.82827521 -73.88244177 144.47466131 -69.0368042 148.34986877 C-65.79136739 150.96015065 -62.6128225 153.63717674 -59.4430542 156.33815002 C-54.67456608 160.38899601 -49.86391125 164.38168633 -45.0133667 168.33424377 C-35.43443531 176.1460695 -25.89075468 183.9978784 -16.47479248 192.00563049 C-12.27977238 195.56843406 -8.02391142 199.05140578 -3.7555542 202.52565002 C-0.62505568 205.09961547 2.46860214 207.71391906 5.5569458 210.33815002 C11.33243238 215.2436604 17.17968121 220.0549217 23.0569458 224.83815002 C25.92074374 227.1890848 28.78422982 229.54039522 31.64678955 231.89283752 C33.75093226 233.59115693 35.8813545 235.23295737 38.0569458 236.83815002 C36.65185481 240.02074853 34.98773238 242.15163468 32.52520752 244.59693909 C31.44431351 245.67760651 31.44431351 245.67760651 30.34158325 246.78010559 C29.56444977 247.5469165 28.78731628 248.31372742 27.9866333 249.10377502 C27.19040558 249.89717285 26.39417786 250.69057068 25.57382202 251.50801086 C23.03118632 254.03945706 20.48168232 256.56385806 17.9319458 259.08815002 C16.20622827 260.80383619 14.48096225 262.51997664 12.75616455 264.23658752 C8.52831548 268.4423925 4.29480711 272.64243509 0.0569458 276.83815002 C-1.200906 275.90448647 -2.45739054 274.96898078 -3.71331787 274.0327301 C-4.41317307 273.51197403 -5.11302826 272.99121796 -5.83409119 272.4546814 C-9.09909831 269.95203606 -12.17303681 267.24739932 -15.2555542 264.52565002 C-20.47279017 259.96000293 -25.75541021 255.50428523 -31.14227295 251.13893127 C-35.62018156 247.46042616 -39.99904715 243.66775347 -44.39227295 239.88893127 C-51.65336423 233.64387682 -58.94858849 227.44183853 -66.3805542 221.40065002 C-71.79875999 216.98901948 -77.0957627 212.4449136 -82.39227295 207.88893127 C-89.63121544 201.66292635 -96.90171329 195.47728763 -104.3180542 189.46315002 C-109.44038943 185.29658579 -114.41722798 180.97613721 -119.39349365 176.63771057 C-123.90245377 172.71565463 -128.49003484 168.90783138 -133.13446045 165.14674377 C-136.44604212 162.42470655 -139.69610023 159.63665875 -142.9430542 156.83815002 C-150.12190399 150.65486418 -157.32205329 144.47488111 -164.9430542 138.83815002 C-163.70966622 135.13798608 -162.30484976 134.29111969 -159.2555542 131.90065002 C-154.73826249 128.29736287 -150.31433057 124.61707678 -145.9430542 120.83815002 C-140.95439088 116.53757819 -135.9008136 112.33327236 -130.7868042 108.18190002 C-127.46618934 105.44512954 -124.20258638 102.64712052 -120.9430542 99.83815002 C-115.95364653 95.5384229 -110.90084264 91.33329594 -105.7868042 87.18190002 C-102.46618934 84.44512954 -99.20258638 81.64712052 -95.9430542 78.83815002 C-91.81837216 75.28361841 -87.67097708 71.7702286 -83.4430542 68.33815002 C-78.04229248 63.951021 -72.7683772 59.42591591 -67.49383545 54.88893127 C-60.23274417 48.64387682 -52.93751991 42.44183853 -45.5055542 36.40065002 C-41.25913038 32.94540851 -37.09009126 29.41117168 -32.9430542 25.83815002 C-27.9413718 21.52877943 -22.88951611 17.29696504 -17.7477417 13.15455627 C-15.62877891 11.40449369 -13.56470636 9.62938087 -11.5133667 7.80299377 C-10.93014648 7.29002747 -10.34692627 6.77706116 -9.74603271 6.24855042 C-8.60707234 5.24379213 -7.4768999 4.22896125 -6.35687256 3.20314026 C-2.46803478 -0.20557912 -2.46803478 -0.20557912 0 0 Z " fill="#E10717" transform="translate(185.94305419921875,274.16184997558594)"/>
<path d="M0 0 C4.27860433 0.317669 7.00163961 3.29086887 10.0625 6 C11.23107391 7.01252364 12.40035506 8.02423157 13.5703125 9.03515625 C14.15071289 9.53934082 14.73111328 10.04352539 15.32910156 10.56298828 C17.6608205 12.56832108 20.04617372 14.5038608 22.4375 16.4375 C27.30129025 20.39508188 32.05881231 24.46542446 36.80834961 28.55834961 C40.33298919 31.58945289 43.89039882 34.56985316 47.5 37.5 C52.90076172 41.88712902 58.174677 46.41223412 63.44921875 50.94921875 C70.71031003 57.19427321 78.00553429 63.3963115 85.4375 69.4375 C90.30129025 73.39508188 95.05881231 77.46542446 99.80834961 81.55834961 C103.33298919 84.58945289 106.89039882 87.56985316 110.5 90.5 C115.90076172 94.88712902 121.174677 99.41223412 126.44921875 103.94921875 C134.61892239 110.9757444 142.85434722 117.91515437 151.2109375 124.71875 C156.17108335 128.77578806 161.0836079 132.89013645 166 137 C164.49775154 140.73892951 162.39834702 142.54093605 159.25 145 C154.75113397 148.5802494 150.34917639 152.23945187 146 156 C141.87597887 159.55526754 137.72789097 163.06794733 133.5 166.5 C128.09923828 170.88712902 122.825323 175.41223412 117.55078125 179.94921875 C110.28968997 186.19427321 102.99446571 192.3963115 95.5625 198.4375 C90.14429421 202.84913055 84.8472915 207.39323642 79.55078125 211.94921875 C72.31183876 218.17522367 65.04134091 224.3608624 57.625 230.375 C52.50266476 234.54156423 47.52582622 238.86201281 42.54956055 243.20043945 C38.04197757 247.1212975 33.45615909 250.9283474 28.8125 254.6875 C25.47717738 257.42987637 22.20658441 260.24181235 18.9375 263.0625 C13.3933772 267.84416381 7.76423356 272.48424099 2 277 C-4.18732755 271.88355607 -9.83734871 266.31167952 -15.5 260.625 C-16.41136719 259.7175 -17.32273437 258.81 -18.26171875 257.875 C-22.85787467 253.27221182 -27.3309562 248.62619557 -31.54492188 243.66943359 C-32.96658482 242.03833776 -34.45243468 240.5112402 -36 239 C-34.75087524 235.25262573 -33.2061277 234.31022558 -30.125 231.875 C-29.11953125 231.07191406 -28.1140625 230.26882813 -27.078125 229.44140625 C-26.06234375 228.63574219 -25.0465625 227.83007812 -24 227 C-22.28878876 225.60769631 -20.58042259 224.21188817 -18.875 222.8125 C-17.97265625 222.07386719 -17.0703125 221.33523438 -16.140625 220.57421875 C-15.09365294 219.71626426 -14.04678737 218.85817982 -13 218 C-12.36255859 217.47744629 -11.72511719 216.95489258 -11.06835938 216.41650391 C-3.69278506 210.36639011 3.67187377 204.30700249 10.9375 198.125 C15.28631929 194.42579961 19.69501035 190.81754833 24.16796875 187.26953125 C30.08569379 182.52718884 35.91408867 177.67438043 41.76220703 172.84667969 C44.63752174 170.47390198 47.51519193 168.10399451 50.39331055 165.73461914 C51.79487187 164.58059281 53.19607791 163.42613486 54.59692383 162.27124023 C58.28191989 159.23379883 61.97260517 156.2036408 65.671875 153.18359375 C66.43822266 152.55646484 67.20457031 151.92933594 67.99414062 151.28320312 C69.45458344 150.08829537 70.91671643 148.89544916 72.38085938 147.70507812 C76.12770116 144.63550803 79.64334131 141.49326689 83 138 C75.74433084 131.73999931 68.47149226 125.51419547 61.03515625 119.46875 C51.45912354 111.67975042 41.93494734 103.82942579 32.53173828 95.83251953 C28.33314325 92.26667979 24.07412002 88.78025391 19.80078125 85.3046875 C16.73224213 82.77966925 13.70960188 80.20515231 10.6875 77.625 C6.25148397 73.84207508 1.73399357 70.19467263 -2.875 66.625 C-8.6103584 62.17717104 -14.11299198 57.50587819 -19.57202148 52.72436523 C-24.94681369 48.02062403 -30.43471738 43.47768061 -36 39 C-34.3837447 34.91336579 -31.44804688 32.21049134 -28.36328125 29.203125 C-27.52678291 28.37442902 -27.52678291 28.37442902 -26.67338562 27.5289917 C-24.89112195 25.76449486 -23.10233665 24.00681205 -21.3125 22.25 C-18.9718464 19.9461441 -16.63443826 17.6390679 -14.30078125 15.328125 C-13.74278839 14.77572144 -13.18479553 14.22331787 -12.6098938 13.6541748 C-8.53997538 9.59925936 -4.6962268 5.39971476 -1 1 C-0.67 0.67 -0.34 0.34 0 0 Z " fill="#52AAF9" transform="translate(630,274)"/>
<path d="M0 0 C269.94 0 539.88 0 818 0 C818 0.33 818 0.66 818 1 C548.06 1 278.12 1 0 1 C0 0.67 0 0.34 0 0 Z " fill="#979799" transform="translate(0,817)"/>
<path d="M0 0 C0.66 0.33 1.32 0.66 2 1 C0.88121617 2.17262904 -0.24523051 3.33795138 -1.375 4.5 C-2.00148438 5.1496875 -2.62796875 5.799375 -3.2734375 6.46875 C-5 8 -5 8 -7 8 C-5.61918777 3.8575633 -3.40174442 2.67796901 0 0 Z " fill="#CB333E" transform="translate(28,405)"/>
</svg>
