<?xml version="1.0" encoding="UTF-8"?>
<svg version="1.1" xmlns="http://www.w3.org/2000/svg" width="818" height="818">
<path d="M0 0 C269.94 0 539.88 0 818 0 C818 269.94 818 539.88 818 818 C548.06 818 278.12 818 0 818 C0 548.06 0 278.12 0 0 Z " fill="#99989A" transform="translate(0,0)"/>
<path d="M0 0 C19.14 0 38.28 0 58 0 C55.77473364 7.78843227 55.77473364 7.78843227 54.1875 11.125 C52.45897332 14.88406359 50.95523594 18.68933359 49.5 22.5625 C47.87031327 26.86347751 46.09220251 30.92600478 43.95703125 34.9921875 C42.82772692 37.3614219 41.98347091 39.76997291 41.125 42.25 C39.68788608 46.34634047 37.98917676 50.14159684 36 54 C33.5780437 58.69823101 31.71271388 63.38230305 29.98828125 68.37109375 C29.02589608 70.93111439 27.89702191 73.26863929 26.625 75.6875 C23.98611862 80.75350067 22.04632831 86.00441567 20.14306641 91.37963867 C18.76269036 95.21795331 17.12169028 98.53074968 15 102 C14.28992335 103.81696084 13.62311955 105.651412 13 107.5 C11.70145798 111.35234131 10.09007808 114.5238127 8 118 C7.31036619 119.75423961 6.6647664 121.52637946 6.0625 123.3125 C4.88364891 126.66976033 3.65576758 129.85079499 2 133 C0.41856539 136.01575902 -0.76228025 139.03138915 -1.875 142.25 C-3.68840289 147.41891217 -6.04787217 152.15315909 -8.5546875 157.015625 C-10.36334887 160.75026631 -11.71609466 164.56721596 -13.0703125 168.484375 C-14.16173882 171.43764623 -15.54817497 174.13838018 -17.0078125 176.921875 C-18.15085074 179.31595509 -19.00825258 181.74287935 -19.875 184.25 C-21.31211392 188.34634047 -23.01082324 192.14159684 -25 196 C-27.41807325 200.69069848 -29.2817702 205.36703872 -31.00390625 210.34765625 C-32.33359324 213.88827376 -34.0412941 217.17594915 -35.77734375 220.53125 C-37.40001487 223.80769776 -38.71671072 227.17174681 -40.0390625 230.578125 C-40.94331487 232.85713503 -41.92001569 235.0821744 -42.9375 237.3125 C-44.59162566 240.96966845 -46.02915764 244.67898632 -47.4375 248.4375 C-49.27007655 253.27393292 -51.36450037 257.81443018 -53.74609375 262.3984375 C-55.71390856 266.48119346 -57.22654964 270.72633279 -58.8125 274.96875 C-60.03673948 278.09378235 -61.47038005 281.00044962 -63.03125 283.96484375 C-64.63368428 287.33124803 -65.78256066 290.85729363 -66.97265625 294.38671875 C-68.05574489 297.14179974 -69.47865041 299.46574141 -71 302 C-71.66831685 303.71289082 -72.2927943 305.44345904 -72.875 307.1875 C-74.51337896 311.85250269 -76.50817046 316.14556952 -78.77734375 320.53125 C-80.40001487 323.80769776 -81.71671072 327.17174681 -83.0390625 330.578125 C-83.94331487 332.85713503 -84.92001569 335.0821744 -85.9375 337.3125 C-87.60978719 341.01120578 -89.06901615 344.76404746 -90.5 348.5625 C-92.12608415 352.8539698 -93.89611485 356.90980884 -96.03125 360.96484375 C-97.63368428 364.33124803 -98.78256066 367.85729363 -99.97265625 371.38671875 C-101.05584022 374.14204223 -102.47905538 376.4650923 -104 379 C-104.68963381 380.75423961 -105.3352336 382.52637946 -105.9375 384.3125 C-107.59730156 389.23442238 -109.60548667 393.21097334 -112 398 C-131.14 398 -150.28 398 -170 398 C-166.67052023 388.01156069 -166.67052023 388.01156069 -164.625 384.25 C-162.06372136 379.31203937 -160.13096791 374.22856842 -158.18359375 369.0234375 C-156.97720157 365.94176243 -155.56756509 363.08020452 -154.03125 360.15625 C-152.67995505 357.3308151 -151.60251143 354.43106697 -150.5 351.5 C-148.89196603 347.22498285 -147.1522106 343.19291696 -145.03125 339.15625 C-143.67995505 336.3308151 -142.60251143 333.43106697 -141.5 330.5 C-139.89196603 326.22498285 -138.1522106 322.19291696 -136.03125 318.15625 C-134.67995505 315.3308151 -133.60251143 312.43106697 -132.5 309.5 C-130.89196603 305.22498285 -129.1522106 301.19291696 -127.03125 297.15625 C-125.67995505 294.3308151 -124.60251143 291.43106697 -123.5 288.5 C-121.89196603 284.22498285 -120.1522106 280.19291696 -118.03125 276.15625 C-116.67995505 273.3308151 -115.60251143 270.43106697 -114.5 267.5 C-112.89196603 263.22498285 -111.1522106 259.19291696 -109.03125 255.15625 C-107.67995505 252.3308151 -106.60251143 249.43106697 -105.5 246.5 C-103.89196603 242.22498285 -102.1522106 238.19291696 -100.03125 234.15625 C-98.67995505 231.3308151 -97.60251143 228.43106697 -96.5 225.5 C-94.89196603 221.22498285 -93.1522106 217.19291696 -91.03125 213.15625 C-89.67995505 210.3308151 -88.60251143 207.43106697 -87.5 204.5 C-85.89196603 200.22498285 -84.1522106 196.19291696 -82.03125 192.15625 C-80.67995505 189.3308151 -79.60251143 186.43106697 -78.5 183.5 C-76.89196603 179.22498285 -75.1522106 175.19291696 -73.03125 171.15625 C-71.67995505 168.3308151 -70.60251143 165.43106697 -69.5 162.5 C-67.89196603 158.22498285 -66.1522106 154.19291696 -64.03125 150.15625 C-62.67995505 147.3308151 -61.60251143 144.43106697 -60.5 141.5 C-58.90572041 137.26154937 -57.18839533 133.25759544 -55.08233643 129.25671387 C-53.79469557 126.57193221 -52.7597073 123.83683933 -51.71386719 121.04882812 C-49.1656881 114.36407937 -46.41086971 107.78709275 -43.578125 101.21875 C-43.07383972 100.04397095 -42.56955444 98.86919189 -42.04998779 97.65881348 C-40.72074025 94.56226277 -39.3886101 91.46696094 -38.05578613 88.37194824 C-36.72818861 85.28776282 -35.40322938 82.20244471 -34.078125 79.1171875 C-32.0195082 74.32468789 -29.95862305 69.53317258 -27.89648438 64.7421875 C-26.04529192 60.43857107 -24.20226353 56.13165578 -22.36914062 51.8203125 C-21.96379089 50.86854126 -21.55844116 49.91677002 -21.14080811 48.93615723 C-20.40112371 47.19803357 -19.66334803 45.45909561 -18.92803955 43.71911621 C-17.05187633 39.31455005 -15.05912743 35.00880452 -12.8661499 30.75244141 C-11.54270648 28.07477897 -10.526639 25.30244699 -9.5 22.5 C-8.10746477 18.79653974 -6.69167008 15.20296463 -4.875 11.6875 C-2.59666554 7.37623793 -2.59666554 7.37623793 0 0 Z " fill="#FDFDFD" transform="translate(459,200)"/>
<path d="M0 0 C3.43930583 1.48126357 5.66954338 3.42427446 8.30078125 6.0703125 C9.11353516 6.885 9.92628906 7.6996875 10.76367188 8.5390625 C11.60478516 9.39242188 12.44589844 10.24578125 13.3125 11.125 C14.14201172 11.95515625 14.97152344 12.7853125 15.82617188 13.640625 C20.21405937 18.05968139 24.44015173 22.560132 28.5012207 27.28076172 C30.39075816 29.4482357 32.38676742 31.48524519 34.4375 33.5 C35.11683594 34.1703125 35.79617187 34.840625 36.49609375 35.53125 C36.99238281 36.0159375 37.48867187 36.500625 38 37 C36.41413393 41.38199834 32.97352932 43.86902198 29.5 46.75 C28.86489502 47.28512207 28.22979004 47.82024414 27.57543945 48.37158203 C23.37617654 51.89601081 19.12126198 55.34649837 14.8203125 58.74609375 C11.03536086 61.77090967 7.2996475 64.85393617 3.5625 67.9375 C2.82330322 68.54730713 2.08410645 69.15711426 1.32250977 69.78540039 C-0.12503093 70.97961745 -1.57254157 72.17387096 -3.02001953 73.36816406 C-8.17144816 77.61380512 -13.34548636 81.8318724 -18.515625 86.0546875 C-24.187442 90.69063373 -29.84655708 95.34167208 -35.5 100 C-41.15061474 104.65599755 -46.80605664 109.30573546 -52.4765625 113.9375 C-54.1815537 115.33105318 -55.88463259 116.72694883 -57.5859375 118.125 C-65.33439967 124.48737363 -73.16197599 130.74862053 -81 137 C-73.96514435 144.10956208 -66.54710116 150.64948373 -58.6953125 156.83984375 C-55.60300586 159.31817066 -52.57996632 161.86904824 -49.5625 164.4375 C-45.57315422 167.83201985 -41.56329897 171.19376401 -37.5 174.5 C-33.46016548 177.7882374 -29.46916723 181.12731461 -25.5 184.5 C-19.72457456 189.40545844 -13.88007901 194.22028665 -8 199 C-2.11991504 203.77971818 3.72438264 208.59476265 9.5 213.5 C15.27610092 218.40462201 21.11083759 223.23134194 27 228 C27.93585938 228.75925781 28.87171875 229.51851562 29.8359375 230.30078125 C34.19195655 233.99119074 34.19195655 233.99119074 39 237 C37.6142528 240.10851082 36.00400017 242.26055073 33.62353516 244.68286133 C32.93587067 245.38651321 32.24820618 246.0901651 31.53970337 246.81513977 C30.79699188 247.56321396 30.0542804 248.31128815 29.2890625 249.08203125 C28.52451752 249.85560471 27.75997253 250.62917816 26.97225952 251.42619324 C25.35599381 253.05695261 23.73691338 254.68492641 22.11523438 256.31030273 C19.62905701 258.8084235 17.16213759 261.32458327 14.6953125 263.84179688 C13.12354742 265.42302053 11.55066811 267.00313757 9.9765625 268.58203125 C9.23789948 269.34022659 8.49923645 270.09842194 7.7381897 270.8795929 C7.04422089 271.56748398 6.35025208 272.25537506 5.63525391 272.96411133 C5.02839752 273.57603836 4.42154114 274.18796539 3.79629517 274.81843567 C2 276 2 276 -0.12367249 275.76249695 C-2.24178063 274.90174583 -3.58460645 273.90042197 -5.28515625 272.375 C-5.89230469 271.83810547 -6.49945313 271.30121094 -7.125 270.74804688 C-8.0840625 269.88276367 -8.0840625 269.88276367 -9.0625 269 C-10.41689906 267.80087405 -11.77237336 266.60296149 -13.12890625 265.40625 C-13.79164551 264.81972656 -14.45438477 264.23320313 -15.13720703 263.62890625 C-17.54340672 261.52482181 -20.01149764 259.50577033 -22.5 257.5 C-26.91668944 253.92458474 -31.21780385 250.23400652 -35.5 246.5 C-40.65575716 242.00492302 -45.87510878 237.61376778 -51.19140625 233.30859375 C-54.5029848 230.58655909 -57.75313059 227.79860269 -61 225 C-65.124643 221.44542508 -69.27207904 217.93207702 -73.5 214.5 C-78.90362902 210.11054182 -84.18038455 205.58317191 -89.45703125 201.04296875 C-94.40558716 196.78648075 -99.3947854 192.57832994 -104.38232422 188.36767578 C-106.02908979 186.97540583 -107.67310067 185.57994527 -109.31640625 184.18359375 C-114.32234652 179.93259941 -119.3404038 175.70435708 -124.4375 171.5625 C-129.84925967 167.15611804 -135.14023512 162.61784614 -140.4296875 158.06640625 C-143.93876983 155.04805765 -147.46573346 152.05129808 -151 149.0625 C-151.7731958 148.40822021 -151.7731958 148.40822021 -152.56201172 147.74072266 C-156.02831838 144.81133821 -159.5110212 141.9022904 -163 139 C-161.49775154 135.26107049 -159.39834702 133.45906395 -156.25 131 C-151.75113397 127.4197506 -147.34917639 123.76054813 -143 120 C-138.01138343 115.69937544 -132.95775749 111.49512078 -127.84375 107.34375 C-124.52313514 104.60697951 -121.25953218 101.8089705 -118 99 C-113.87531796 95.44546839 -109.72792288 91.93207857 -105.5 88.5 C-100.09923828 84.11287098 -94.825323 79.58776588 -89.55078125 75.05078125 C-82.28968997 68.80572679 -74.99446571 62.6036885 -67.5625 56.5625 C-62.69870975 52.60491812 -57.94118769 48.53457554 -53.19165039 44.44165039 C-49.66701081 41.41054711 -46.10960118 38.43014684 -42.5 35.5 C-38.31916896 32.10384106 -34.20873329 28.63651888 -30.125 25.125 C-29.24183105 24.36558105 -29.24183105 24.36558105 -28.34082031 23.59082031 C-27.45668457 22.83043457 -27.45668457 22.83043457 -26.5546875 22.0546875 C-17.82619313 14.547896 -9.044961 7.1257142 0 0 Z " fill="#E20616" transform="translate(185,274)"/>
<path d="M0 0 C2.76779864 1.34291246 4.98057912 2.67786656 7.28515625 4.72265625 C7.89238525 5.25640869 8.49961426 5.79016113 9.12524414 6.34008789 C9.76453857 6.90848389 10.40383301 7.47687988 11.0625 8.0625 C12.41562113 9.25119122 13.7697935 10.43868682 15.125 11.625 C15.78757812 12.20507812 16.45015625 12.78515625 17.1328125 13.3828125 C19.56937304 15.49313899 22.05722858 17.53442314 24.5625 19.5625 C28.77198519 22.97136988 32.89760971 26.46399068 37 30 C41.124643 33.55457492 45.27207904 37.06792298 49.5 40.5 C54.34596789 44.4337857 59.08098528 48.48447759 63.80859375 52.55859375 C67.33317903 55.58958284 70.89048832 58.56992581 74.5 61.5 C79.90076172 65.88712902 85.174677 70.41223412 90.44921875 74.94921875 C97.71031003 81.19427321 105.00553429 87.3963115 112.4375 93.4375 C117.30129025 97.39508188 122.05881231 101.46542446 126.80834961 105.55834961 C131.19385124 109.32977307 135.65182733 113.00126027 140.14453125 116.64453125 C143.53631812 119.44240742 146.86131405 122.31227744 150.1875 125.1875 C154.98875587 129.33409832 159.84765221 133.29030959 165 137 C163.76661202 140.70016395 162.36179556 141.54703034 159.3125 143.9375 C154.79520829 147.54078716 150.37127637 151.22107324 146 155 C141.87593982 158.5552243 137.72789291 162.06794576 133.5 165.5 C128.09923828 169.88712902 122.825323 174.41223412 117.55078125 178.94921875 C110.28968997 185.19427321 102.99446571 191.3963115 95.5625 197.4375 C90.14143044 201.8514623 84.84158026 206.39782805 79.54296875 210.95703125 C74.59441284 215.21351925 69.6052146 219.42167006 64.61767578 223.63232422 C62.97091021 225.02459417 61.32689933 226.42005473 59.68359375 227.81640625 C54.67765348 232.06740059 49.6595962 236.29564292 44.5625 240.4375 C39.14572601 244.84796474 33.85014793 249.39094151 28.5546875 253.9453125 C23.06606659 258.66570653 17.54971283 263.35158325 12 268 C11.03320312 268.81339844 10.06640625 269.62679688 9.0703125 270.46484375 C8.18085937 271.19832031 7.29140625 271.93179687 6.375 272.6875 C5.21097656 273.65236328 5.21097656 273.65236328 4.0234375 274.63671875 C2 276 2 276 -1 276 C-2.29907227 274.77294922 -2.29907227 274.77294922 -3.75390625 272.9296875 C-7.29827853 268.6980744 -11.104049 264.82026595 -15.02734375 260.9453125 C-15.66467438 260.3137323 -16.302005 259.6821521 -16.95864868 259.03143311 C-19.63301549 256.38385358 -22.31165519 253.74066786 -24.99438477 251.1015625 C-26.9680125 249.15794923 -28.93552729 247.2083145 -30.90234375 245.2578125 C-31.51472397 244.65889191 -32.12710419 244.05997131 -32.75804138 243.44290161 C-34.21029552 241.99944092 -35.61078013 240.50422372 -37 239 C-37 238.34 -37 237.68 -37 237 C-35.62890625 235.765625 -35.62890625 235.765625 -33.5625 234.25 C-28.86059256 230.69580225 -24.29477652 227.00126016 -19.75 223.25 C-19.01394531 222.6430127 -18.27789063 222.03602539 -17.51953125 221.41064453 C-12.46356382 217.23171005 -7.44951842 213.00591813 -2.453125 208.75610352 C1.36306687 205.5179595 5.24724857 202.37950477 9.16796875 199.26953125 C15.08569379 194.52718884 20.91408867 189.67438043 26.76220703 184.84667969 C30.33911795 181.8949282 33.91968331 178.94761867 37.5 176 C38.91668547 174.83335617 40.33335211 173.66668947 41.75 172.5 C50.25 165.5 50.25 165.5 52.37841797 163.74731445 C53.78386083 162.5898053 55.18913647 161.43209306 56.59423828 160.27416992 C60.30622742 157.21563925 64.02172846 154.16150545 67.7421875 151.11328125 C68.51755859 150.47712891 69.29292969 149.84097656 70.09179688 149.18554688 C71.57901201 147.96549614 73.06724321 146.74668259 74.55664062 145.52929688 C75.22630859 144.97951172 75.89597656 144.42972656 76.5859375 143.86328125 C77.1742334 143.38157471 77.7625293 142.89986816 78.36865234 142.40356445 C79.99428142 141.0049201 81.50424922 139.53576992 83 138 C82.50113281 137.62230469 82.00226563 137.24460937 81.48828125 136.85546875 C76.17319966 132.78089094 71.03704027 128.53158946 65.94067383 124.19018555 C62.49123797 121.25418668 59.01428253 118.35855634 55.5 115.5 C51.4366952 112.19375926 47.42700691 108.83183571 43.4375 105.4375 C39.66911061 102.23260809 35.87753972 99.07312306 32 96 C27.54746299 92.47116597 23.21314021 88.81770671 18.88671875 85.13671875 C14.57037996 81.468844 10.1952084 77.87873679 5.80078125 74.3046875 C2.73224006 71.77966755 -0.29033154 69.20507667 -3.3125 66.625 C-7.79303071 62.80588097 -12.35281305 59.11419215 -17 55.5 C-21.85258864 51.71758472 -26.65081874 47.87953204 -31.375 43.9375 C-31.94089844 43.47214844 -32.50679687 43.00679688 -33.08984375 42.52734375 C-34.4325353 41.39665613 -35.72218598 40.20352251 -37 39 C-37 37 -37 37 -34.96801758 34.84301758 C-33.98007457 33.89388963 -32.99057374 32.94638201 -32 32 C-30.82891925 30.83433573 -29.66073822 29.66575379 -28.49487305 28.49487305 C-18.99658203 18.99658203 -9.49829102 9.49829102 0 0 Z " fill="#055CAB" transform="translate(631,274)"/>
</svg>
